# xmcd CD database file
#
# Track frame offsets:
#	182
#	16120
#	34307
#	50845
#	70682
#	89957
#	110582
#	132220
#	150857
#	172157
#	185057
#
# Disc length: 2740 seconds
#
# Revision: 2
# Processed by: cddbd v1.5PL3 Copyright (c) Steve Scherf et al.
# Submitted via: CDex 1.51
#
DISCID=990ab20b
DTITLE=Hoopsnakes - Jump In And Hang On
DYEAR=1990
DGENRE=Rock
TTITLE0=Jump In And Hang On
TTITLE1=Can't Seem To Stop Myself
TTITLE2=All Dames Are Dynamite
TTITLE3=Walk Real Slow
TTITLE4=Wound Up
TTITLE5=Home Away From Home
TTITLE6=Love and Mercy
TTITLE7=One Stop Shoppin'
TTITLE8=The First Man (Who Ever Had The Blues)
TTITLE9=As Simple As That
TTITLE10=Still Rainin'
EXTD=YEAR: 1990
EXTT0=
EXTT1=
EXTT2=
EXTT3=
EXTT4=
EXTT5=
EXTT6=
EXTT7=
EXTT8=
EXTT9=
EXTT10=
PLAYORDER=
